{"title":"Naughty Boy Ft. Wiz Khalifa &amp; Ella Eyre - Think About It [Mu","uid":9315649,"size":30319128,"categoryP":"video","categoryS":"music_videos","magnet":"?xt=urn:btih:ce976e041eb713ce967c8448ba462d400e7535cd&amp;dn=Naughty+Boy+Ft.+Wiz+Khalifa+%26amp%3B+Ella+Eyre+-+Think+About+It+%5BMu&amp;tr=udp%3A%2F%2Ftracker.openbittorrent.com%3A80&amp;tr=udp%3A%2F%2Fopen.demonii.com%3A1337&amp;tr=udp%3A%2F%2Ftracker.coppersurfer.tk%3A6969&amp;tr=udp%3A%2F%2Fexodus.desync.com%3A6969","seeders":0,"leechers":0,"uploader":"Sbyky","files":1,"time":1386467014,"description":"\n\nGeneral\nComplete name                            : Naughty Boy Ft. Wiz Khalifa &amp; Ella Eyre - Think About It [Music Video] 720p [Sbyky].MP4\nFormat                                   : MPEG-4\nFormat profile                           : Base Media\nCodec ID                                 : isom\nFile size                                : 28.9 MiB\nDuration                                 : 3mn 13s\nOverall bit rate mode                    : Variable\nOverall bit rate                         : 1 251 Kbps\nEncoded date                             : UTC 2013-11-12 12:26:48\nTagged date                              : UTC 2013-11-12 12:26:48\n\nVideo\nID                                       : 1\nFormat                                   : AVC\nFormat/Info                              : Advanced Video Codec\nFormat profile                           : &lt;a class=&quot;__cf_email__&quot; href=&quot;/cdn-cgi/l/email-protection&quot; data-cfemail=&quot;d79ab6beb9979be4f9e6&quot;&gt;[email&amp;#160;protected]&lt;/a&gt;&lt;script data-cfhash='f9e31' type=&quot;text/javascript&quot;&gt;\n/* &lt;![CDATA[ */!function(){try{var t=&quot;currentScript&quot;in document?document.currentScript:function(){for(var t=document.getElementsByTagName(&quot;script&quot;),e=t.length;e--;)if(t[e].getAttribute(&quot;data-cfhash&quot;))return t[e]}();if(t&amp;&amp;t.previousSibling){var e,r,n,i,c=t.previousSibling,a=c.getAttribute(&quot;data-cfemail&quot;);if(a){for(e=&quot;&quot;,r=parseInt(a.substr(0,2),16),n=2;a.length-n;n+=2)i=parseInt(a.substr(n,2),16)^r,e+=String.fromCharCode(i);e=document.createTextNode(e),c.parentNode.replaceChild(e,c)}t.parentNode.removeChild(t);}}catch(u){}}()/* ]]&gt; */&lt;/script&gt;\nFormat settings, CABAC                   : Yes\nFormat settings, ReFrames                : 3 frames\nCodec ID                                 : avc1\nCodec ID/Info                            : Advanced Video Coding\nDuration                                 : 3mn 13s\nBit rate                                 : 995 Kbps\nWidth                                    : 1 280 pixels\nHeight                                   : 720 pixels\nDisplay aspect ratio                     : 16:9\nFrame rate mode                          : Constant\nFrame rate                               : 25.000 fps\nColor space                              : YUV\nChroma subsampling                       : 4:2:0\nBit depth                                : 8 bits\nScan type                                : Progressive\nBits/(Pixel*Frame)                       : 0.043\nStream size                              : 23.0 MiB (79%)\nEncoded date                             : UTC 2013-11-12 12:26:48\nTagged date                              : UTC 2013-11-12 12:26:48\n\nAudio\nID                                       : 2\nFormat                                   : AAC\nFormat/Info                              : Advanced Audio Codec\nFormat profile                           : LC\nCodec ID                                 : 40\nDuration                                 : 3mn 13s\nBit rate mode                            : Variable\nBit rate                                 : 254 Kbps\nChannel(s)                               : 2 channels\nChannel positions                        : Front: L R\nSampling rate                            : 44.1 KHz\nCompression mode                         : Lossy\nDelay relative to video                  : 40ms\nStream size                              : 5.86 MiB (20%)\nEncoded date                             : UTC 2013-11-12 12:27:18\nTagged date                              : UTC 2013-11-12 12:27:18\n\nShared By Sbyky\n","torrent":{"xt":"urn:btih:ce976e041eb713ce967c8448ba462d400e7535cd","amp;dn":"Naughty+Boy+Ft.+Wiz+Khalifa+%26amp%3B+Ella+Eyre+-+Think+About+It+%5BMu","amp;tr":["udp%3A%2F%2Ftracker.openbittorrent.com%3A80","udp%3A%2F%2Fopen.demonii.com%3A1337","udp%3A%2F%2Ftracker.coppersurfer.tk%3A6969","udp%3A%2F%2Fexodus.desync.com%3A6969"],"infoHash":"ce976e041eb713ce967c8448ba462d400e7535cd","infoHashBuffer":{"type":"Buffer","data":[206,151,110,4,30,183,19,206,150,124,132,72,186,70,45,64,14,117,53,205]},"announce":[],"urlList":[]}}